<svg width="20" height="23" viewBox="0 0 20 23" fill="none" xmlns="http://www.w3.org/2000/svg">
<path d="M8.57143 0.0714417C7 0.0714417 5.71429 1.35716 5.71429 2.92858H2.85714C1.28571 2.92858 0 4.2143 0 5.78573H20C20 4.2143 18.7143 2.92858 17.1429 2.92858H14.2857C14.2857 1.35716 13 0.0714417 11.4286 0.0714417H8.57143ZM2.85714 8.64287V22.3857C2.85714 22.7 3.08571 22.9286 3.4 22.9286H16.6286C16.9429 22.9286 17.1714 22.7 17.1714 22.3857V8.64287H14.3143V18.6429C14.3143 19.4429 13.6857 20.0714 12.8857 20.0714C12.0857 20.0714 11.4571 19.4429 11.4571 18.6429V8.64287H8.6V18.6429C8.6 19.4429 7.97143 20.0714 7.17143 20.0714C6.37143 20.0714 5.74286 19.4429 5.74286 18.6429V8.64287H2.88571H2.85714Z" fill="#074F60"/>
</svg>
